<?xml version="1.0" standalone="no"?>
<!DOCTYPE svg PUBLIC "-//W3C//DTD SVG 20010904//EN"
 "http://www.w3.org/TR/2001/REC-SVG-20010904/DTD/svg10.dtd">
<svg version="1.0" xmlns="http://www.w3.org/2000/svg"
 width="687.000000pt" height="685.000000pt" viewBox="0 0 687.000000 685.000000"
 preserveAspectRatio="xMidYMid meet">

<g transform="translate(0.000000,685.000000) scale(0.100000,-0.100000)"
fill="#000000" stroke="none">
<path d="M2855 6840 c-8 -13 15 -13 35 0 12 8 11 10 -7 10 -12 0 -25 -4 -28
-10z"/>
<path d="M2966 6820 c-21 -16 -48 -32 -58 -36 -11 -3 -18 -8 -15 -10 5 -6 157
63 157 70 0 16 -50 2 -84 -24z"/>
<path d="M3100 6821 c-39 -24 -56 -47 -32 -45 12 1 142 64 142 69 0 15 -71 0
-110 -24z"/>
<path d="M3224 6808 c-63 -44 -151 -69 -165 -46 -6 9 -13 9 -31 0 -36 -18
-129 -42 -161 -42 -32 0 -244 -55 -367 -94 -369 -120 -760 -323 -1039 -539
-268 -208 -523 -470 -713 -732 -321 -442 -555 -1059 -612 -1612 l-5 -53 77 0
c92 0 110 -8 91 -38 -11 -18 -11 -25 7 -49 10 -15 37 -65 59 -111 22 -45 44
-81 50 -79 5 2 17 15 25 30 13 24 12 31 -20 96 -33 68 -35 96 -7 72 8 -6 22
-29 32 -51 10 -22 21 -40 26 -40 4 0 21 27 39 61 24 46 29 64 20 74 -20 24 23
35 139 35 l110 0 6 48 c4 26 18 101 31 167 14 66 29 156 35 200 15 126 26 157
104 295 8 14 38 78 66 144 184 418 534 829 940 1105 74 50 161 111 193 136 78
61 140 92 223 111 38 8 113 33 168 54 108 42 358 110 495 134 170 30 319 39
555 33 228 -7 319 -17 340 -38 7 -8 2 -10 -20 -5 -65 14 -569 19 -675 7 -198
-23 -412 -68 -549 -118 -53 -19 -111 -39 -128 -44 -45 -13 -41 -26 10 -39 23
-5 69 -24 102 -40 64 -33 88 -36 132 -19 80 31 321 73 552 97 63 7 65 8 85 46
26 49 53 67 84 55 12 -4 22 -13 22 -19 0 -8 -6 -8 -20 0 -14 8 -25 7 -39 -2
-21 -13 -45 -57 -36 -66 3 -3 42 -7 88 -9 45 -1 118 -7 162 -12 75 -8 83 -7
125 15 25 13 82 42 128 65 59 28 82 45 78 55 -6 17 -14 17 160 -1 152 -15 226
-37 291 -84 22 -16 123 -69 224 -119 256 -125 430 -242 636 -423 143 -127 338
-349 306 -349 -4 0 -64 59 -133 132 -148 156 -350 332 -475 415 -203 134 -438
264 -453 249 -3 -4 7 -32 22 -63 16 -30 36 -81 45 -111 l17 -56 110 -66 c60
-36 148 -94 196 -128 48 -34 88 -62 91 -62 2 0 26 -20 53 -45 27 -25 56 -44
64 -43 9 2 17 20 21 48 6 38 6 36 4 -14 l-3 -59 101 -112 c56 -61 118 -130
137 -152 31 -36 43 -42 115 -58 44 -9 100 -25 124 -36 24 -10 53 -19 63 -19
19 0 20 1 4 23 -9 12 -23 36 -32 52 -15 29 -14 29 18 -6 18 -20 50 -60 71 -90
21 -30 60 -80 86 -112 65 -78 105 -156 125 -246 9 -40 34 -122 56 -181 46
-125 85 -278 106 -405 16 -107 17 -115 4 -95 -5 8 -10 27 -10 41 0 61 -133
509 -151 509 -9 0 -39 -75 -39 -99 0 -11 -16 -43 -36 -72 -20 -30 -36 -63 -36
-74 0 -11 14 -71 31 -132 17 -62 34 -137 37 -168 4 -30 12 -63 19 -72 10 -13
10 -22 1 -36 -9 -15 -7 -22 12 -35 110 -79 150 -125 185 -213 5 -12 7 -12 15
-1 15 22 22 -10 21 -91 0 -75 -17 -145 -18 -79 -1 37 -17 43 -26 10 -13 -45
-71 -120 -120 -156 l-50 -37 -110 0 c-127 0 -163 13 -231 81 -34 34 -43 38
-51 26 -8 -13 -22 -6 -87 42 -64 47 -76 60 -70 78 5 16 3 18 -7 12 -8 -5 -74
-11 -148 -14 -151 -6 -181 -20 -84 -41 68 -14 109 -34 48 -23 -22 4 -56 8 -75
8 l-35 1 -3 -57 c-2 -36 1 -58 8 -58 5 0 10 -11 10 -25 0 -25 0 -25 -95 -25
-78 0 -95 3 -95 15 0 8 7 15 15 15 21 0 27 37 22 121 -9 130 -6 124 -57 121
-65 -4 -71 -19 -14 -33 70 -18 40 -22 -39 -6 -66 14 -66 14 -82 -10 -15 -23
-18 -23 -34 -9 -13 12 -40 16 -109 16 -50 0 -94 -4 -97 -10 -3 -5 0 -10 7 -10
16 0 120 -53 158 -80 32 -22 144 -30 162 -12 20 20 25 14 31 -41 7 -70 -1
-105 -24 -109 -17 -3 -13 -13 31 -89 28 -48 56 -91 63 -97 37 -30 706 -69 753
-44 13 7 25 30 33 64 7 29 17 63 23 76 10 19 7 27 -21 56 l-32 33 83 -1 c46 0
97 3 115 7 30 8 33 6 68 -48 20 -32 52 -88 72 -127 19 -38 37 -67 39 -65 2 2
11 49 20 103 23 146 23 149 36 136 12 -12 6 -67 -32 -287 -11 -60 -24 -146
-29 -190 -10 -85 -37 -159 -78 -213 -14 -19 -47 -82 -73 -140 -136 -304 -400
-669 -620 -858 -31 -26 -23 -15 26 36 92 98 245 284 321 390 60 83 165 268
230 402 38 79 34 82 -59 38 -34 -17 -89 -35 -120 -42 -33 -7 -58 -17 -58 -25
0 -6 -6 -16 -13 -20 -22 -13 -70 -102 -64 -118 4 -8 -1 -16 -11 -19 -10 -3
-46 -47 -82 -97 -90 -129 -375 -449 -398 -449 -17 0 -72 -67 -72 -89 0 -27
-43 -181 -65 -233 -13 -32 -13 -38 -1 -38 16 0 138 92 208 156 26 24 51 44 57
44 5 0 18 3 28 6 29 11 -75 -92 -162 -160 -44 -35 -108 -80 -143 -100 -35 -21
-91 -62 -125 -92 -73 -64 -166 -112 -241 -124 -30 -5 -63 -13 -73 -18 -40 -21
-205 -75 -328 -107 -280 -72 -421 -93 -675 -102 -209 -7 -396 7 -575 43 -71
15 -166 30 -210 35 -106 12 -168 31 -240 74 -33 20 -87 48 -120 62 -173 73
-456 243 -610 367 -235 190 -479 456 -609 666 -22 36 -62 92 -89 125 -52 66
-101 160 -111 215 -3 20 -21 72 -40 117 -71 167 -141 419 -171 616 -9 59 -14
114 -11 122 8 23 -13 29 -119 33 -55 2 -102 6 -105 8 -2 3 1 13 8 24 11 18 20
245 10 256 -6 5 -59 -82 -124 -203 -57 -106 -63 -104 -136 51 -20 44 -46 91
-57 105 l-20 26 0 -115 c-1 -77 3 -120 11 -128 19 -19 2 -25 -68 -23 -57 2
-66 0 -61 -13 4 -9 13 -73 22 -142 43 -351 164 -760 315 -1069 138 -281 280
-499 468 -717 137 -159 412 -417 557 -521 469 -338 879 -519 1425 -628 175
-35 258 -40 659 -36 384 3 442 7 591 44 36 8 97 21 135 28 79 13 392 122 531
183 322 143 670 361 929 582 291 250 597 646 780 1010 98 196 206 473 259 670
10 36 22 75 27 88 5 13 9 38 9 57 0 22 8 43 20 55 21 21 28 46 10 35 -6 -4
-10 6 -10 24 0 16 4 33 10 36 6 4 10 68 10 161 l0 154 -63 0 c-67 0 -83 6 -68
24 5 6 10 58 11 116 2 139 2 150 -10 150 -11 0 -70 -99 -92 -156 -21 -53 -66
-119 -81 -119 -7 0 -19 14 -27 30 -27 53 -90 169 -114 208 -18 30 -25 35 -30
22 -11 -30 -7 -224 6 -245 7 -10 10 -21 8 -23 -3 -3 -39 -6 -80 -8 -71 -4 -75
-3 -71 16 3 11 6 127 8 259 3 174 1 242 -8 252 -22 27 4 34 105 27 97 -6 97
-6 91 -30 -4 -18 6 -46 35 -100 22 -41 40 -81 40 -88 0 -8 11 -27 25 -42 25
-28 25 -28 41 -8 29 37 115 223 112 242 -3 16 6 18 80 21 l82 3 -1 682 c0 594
-2 679 -15 663 -8 -11 -14 -15 -14 -9 0 6 7 16 15 23 8 7 15 25 15 40 0 23 -4
27 -20 23 -11 -3 -20 -1 -20 5 0 6 9 14 20 17 15 5 20 15 20 41 l0 35 -32 -17
c-18 -9 -38 -23 -46 -30 -7 -8 -20 -14 -28 -14 -27 0 -14 18 29 39 62 30 77
45 77 76 l0 27 -42 -25 c-24 -13 -49 -22 -57 -19 -8 2 -11 0 -7 -6 3 -5 -13
-20 -36 -32 -23 -12 -84 -48 -136 -81 -52 -32 -100 -59 -107 -59 -27 0 -21 25
9 41 151 78 213 113 227 125 8 8 19 14 23 14 4 0 34 17 67 38 43 27 59 43 59
60 0 26 -6 27 -45 1 -16 -10 -37 -22 -45 -26 -8 -4 -55 -31 -103 -60 -48 -29
-90 -53 -93 -53 -2 0 -34 -18 -69 -41 -55 -34 -68 -39 -81 -28 -19 15 -17 17
81 69 44 24 96 53 115 65 20 13 63 37 95 54 135 72 140 75 143 104 l3 29 -48
-28 c-26 -15 -64 -37 -83 -49 -19 -12 -69 -41 -110 -65 -41 -24 -108 -63 -148
-88 -68 -41 -75 -43 -90 -28 -19 19 -21 16 53 55 33 17 85 45 116 63 30 18
102 60 160 92 149 85 149 84 149 106 0 24 -6 24 -45 -1 -16 -10 -39 -23 -50
-29 -11 -6 -108 -62 -215 -124 -176 -103 -196 -113 -208 -98 -11 14 -11 18 0
25 35 21 272 155 338 191 166 90 180 100 180 124 0 25 -6 24 -81 -24 -31 -19
-290 -170 -387 -226 -18 -10 -45 -26 -58 -35 -22 -14 -27 -14 -35 -2 -12 19
-7 32 17 44 57 31 375 212 449 256 17 10 45 25 63 33 24 11 32 21 32 40 l0 25
-47 -28 c-27 -15 -100 -59 -163 -96 -63 -37 -173 -102 -245 -145 -93 -56 -134
-75 -142 -68 -23 18 -14 32 35 59 26 14 94 53 152 86 182 105 193 112 302 170
l108 58 0 553 0 552 -1794 0 -1793 0 -59 -42z m156 25 c-1 -26 -49 -53 -92
-52 -32 0 -32 1 22 29 60 31 70 34 70 23z m747 -109 c-3 -3 -12 -4 -19 -1 -8
3 -5 6 6 6 11 1 17 -2 13 -5z m320 -70 c-3 -3 -12 -4 -19 -1 -8 3 -5 6 6 6 11
1 17 -2 13 -5z m-746 -21 c5 -5 6 -24 3 -41 -8 -38 -37 -43 -63 -11 -20 25
-97 37 -130 19 -17 -9 -21 -19 -19 -43 3 -29 6 -32 41 -35 24 -2 43 2 53 13
29 29 49 15 49 -35 0 -38 -3 -45 -21 -48 -11 -2 -27 4 -34 13 -7 8 -28 15 -46
15 -27 0 -35 -5 -40 -24 -3 -13 -4 -35 -2 -47 3 -22 9 -24 65 -27 57 -3 63 -1
79 23 17 26 52 34 59 13 2 -7 1 -29 -3 -48 l-8 -35 -149 4 c-83 1 -152 5 -154
7 -2 2 3 12 12 22 14 15 17 40 17 125 0 97 -2 107 -21 117 -17 10 -18 14 -7
27 11 13 35 15 161 11 81 -3 152 -9 158 -15z m-471 -15 c0 -6 -7 -19 -15 -28
-13 -15 -14 -31 -4 -116 12 -108 14 -114 35 -114 8 0 14 -6 14 -14 0 -14 -49
-26 -112 -26 -40 0 -48 10 -23 30 17 14 20 61 4 77 -7 7 -24 8 -52 1 -23 -5
-64 -8 -91 -5 -55 5 -86 31 -86 74 0 13 -12 35 -26 48 -14 13 -23 28 -20 33 3
5 27 13 53 16 27 4 56 9 66 12 24 7 33 -22 12 -42 -11 -12 -14 -25 -9 -48 9
-45 11 -46 57 -46 75 0 87 8 87 50 0 48 -8 70 -26 70 -23 0 -16 28 9 33 50 10
127 7 127 -5z m845 -22 c128 -23 135 -28 116 -79 -14 -36 -46 -35 -63 0 -13
27 -61 53 -74 40 -4 -4 -16 -52 -26 -108 -18 -94 -18 -102 -3 -119 27 -30 11
-36 -64 -26 -50 7 -71 14 -71 24 0 8 8 16 19 19 15 4 22 24 35 109 10 57 15
108 11 114 -11 18 -48 11 -76 -16 -23 -22 -30 -24 -48 -15 -23 13 -26 27 -11
66 10 26 12 26 73 20 34 -4 116 -17 182 -29z m575 -6 c13 -8 13 -10 -2 -10 -9
0 -20 5 -23 10 -8 13 5 13 25 0z m77 -26 c-3 -3 -12 -4 -19 -1 -8 3 -5 6 6 6
11 1 17 -2 13 -5z m111 -41 c16 -15 15 -16 -13 -9 -40 10 -56 26 -26 26 12 0
30 -8 39 -17z m-2127 -19 c37 -18 68 -83 69 -137 0 -97 -70 -157 -195 -165
-88 -5 -127 13 -163 76 -51 92 -7 185 106 227 51 19 146 18 183 -1z m2229 10
c0 -3 -7 -12 -16 -21 -13 -13 -19 -14 -42 -3 l-27 13 30 8 c40 9 55 10 55 3z
m61 -59 c1 -16 -16 -16 -36 0 -19 15 -19 15 8 13 15 -2 28 -7 28 -13z m-300
-31 c115 -34 150 -70 115 -117 -12 -15 -18 -16 -35 -8 -11 6 -22 20 -26 31
-10 30 -54 60 -90 60 -85 0 -147 -126 -95 -193 25 -32 79 -44 120 -27 24 10
33 10 45 0 13 -11 13 -16 -1 -42 -15 -28 -18 -30 -57 -24 -65 11 -181 71 -195
101 -27 58 -8 149 39 191 49 44 100 52 180 28z m-2425 -29 c3 -8 -3 -27 -14
-42 -28 -41 -57 -122 -46 -133 13 -12 131 -60 147 -60 8 0 20 -6 26 -14 15
-17 3 -26 -71 -54 -57 -21 -76 -17 -64 14 4 10 -6 20 -30 32 -34 16 -36 16
-50 -3 -17 -23 -18 -72 -2 -77 22 -8 -1 -38 -46 -59 -24 -13 -51 -19 -61 -15
-15 6 -16 9 -3 29 19 29 62 157 55 164 -12 11 -139 53 -163 53 -16 0 -24 5
-22 13 5 14 119 78 133 73 5 -1 12 -13 15 -27 7 -30 56 -51 71 -29 20 31 22
62 5 72 -23 13 -11 27 48 54 61 28 65 28 72 9z m2869 -25 c3 -5 -4 -6 -15 -3
-11 3 -22 9 -25 13 -3 5 4 6 15 3 11 -3 22 -9 25 -13z m197 -60 c-12 -5 -25
-16 -28 -24 -3 -9 -12 -12 -21 -9 -14 5 -13 9 7 25 12 10 32 18 44 17 21 0 21
0 -2 -9z m-285 -50 c129 -69 223 -129 223 -143 0 -21 -49 -67 -65 -61 -8 3
-17 21 -21 39 -7 38 -36 70 -57 62 -7 -3 -37 -45 -66 -93 -45 -75 -51 -92 -41
-107 20 -32 2 -32 -66 1 -67 33 -77 52 -33 62 17 4 37 29 71 90 26 47 48 90
48 97 0 22 -40 36 -67 24 -33 -15 -63 -14 -69 3 -7 18 22 76 38 76 6 0 53 -22
105 -50z m363 12 c0 -5 -9 -17 -19 -26 -22 -20 -52 -18 -59 3 -3 8 -1 11 4 8
5 -3 20 1 34 9 29 16 40 17 40 6z m140 -17 c0 -2 -15 -12 -32 -21 -18 -9 -45
-27 -59 -40 -25 -24 -26 -24 -43 -5 -21 23 -15 28 59 52 53 18 75 22 75 14z
m80 -34 c0 -17 -107 -83 -131 -79 -42 6 -30 26 33 56 64 31 98 39 98 23z m110
-26 c-12 -13 -54 -45 -92 -70 -67 -46 -69 -46 -94 -30 -14 9 -23 19 -19 23 11
12 200 101 214 101 10 1 7 -7 -9 -24z m284 -9 c-3 -9 -10 -16 -15 -16 -6 0
-29 -14 -52 -30 -23 -17 -71 -49 -106 -71 -35 -22 -61 -43 -58 -46 3 -3 76 30
161 73 86 42 159 74 163 71 3 -4 4 -8 2 -10 -41 -32 -182 -129 -206 -141 -39
-19 -55 -40 -21 -27 13 5 51 23 86 40 34 17 64 31 67 31 3 0 33 14 67 30 87
42 99 36 28 -12 -87 -60 -193 -138 -187 -138 6 0 199 91 270 127 29 15 44 12
33 -5 -3 -6 -55 -43 -116 -83 -60 -40 -108 -74 -106 -77 3 -2 70 29 151 68 80
40 148 70 151 67 6 -6 -55 -64 -87 -82 -58 -33 -184 -113 -202 -127 -20 -16
-20 -17 -2 -10 11 4 85 41 165 83 153 81 190 97 190 81 0 -18 -113 -97 -267
-187 -46 -27 -81 -51 -78 -53 5 -5 22 4 193 97 163 89 242 125 253 114 14 -14
-429 -293 -464 -293 -8 0 -20 7 -27 15 -10 13 -10 19 5 35 10 11 13 20 7 20
-6 0 -14 -4 -17 -10 -3 -5 -10 -10 -14 -10 -16 0 -102 92 -98 104 3 8 -3 12
-16 12 -14 -1 -26 9 -35 27 -7 15 -18 27 -25 27 -6 0 -30 19 -54 42 -41 40
-42 43 -26 61 17 18 17 18 -10 6 -25 -11 -30 -10 -55 13 -15 14 -35 28 -45 31
-27 10 -33 38 -11 50 42 25 220 106 232 107 6 0 12 -5 12 -11 0 -6 -7 -9 -15
-5 -9 3 -15 0 -15 -8 0 -8 -26 -31 -57 -52 -57 -39 -101 -74 -92 -74 2 0 67
32 143 70 76 39 146 70 156 70 9 0 23 7 30 15 15 19 23 14 14 -9z m-4358 -195
c34 -21 68 -70 79 -114 17 -68 -25 -142 -114 -199 -112 -71 -261 -3 -261 120
0 52 16 85 67 134 76 74 166 97 229 59z m3876 -58 c25 -22 23 -41 -17 -181
-21 -72 -33 -132 -29 -146 10 -40 -11 -37 -67 11 -64 54 -71 70 -32 75 46 5
37 43 -20 91 -39 34 -51 39 -65 30 -10 -6 -16 -22 -15 -37 3 -36 -19 -34 -78
10 -54 40 -61 54 -25 54 13 0 79 22 147 49 157 61 151 59 168 60 8 1 23 -6 33
-16z m1048 -20 c-1 -13 -220 -156 -325 -213 -16 -8 -42 -23 -57 -33 -16 -9
-40 -24 -54 -33 -14 -8 -24 -18 -21 -20 6 -7 78 30 204 102 122 71 300 164
313 164 29 0 1 -32 -62 -72 -146 -91 -436 -258 -450 -258 -25 0 -38 21 -26 43
9 17 8 19 -7 13 -11 -4 -25 0 -37 10 -17 16 -17 18 -2 36 10 10 21 18 25 18 5
0 61 30 126 67 164 92 341 183 359 183 7 0 14 -3 14 -7z m188 -65 c-5 -15 -99
-77 -239 -158 -62 -36 -154 -89 -203 -119 -167 -99 -157 -94 -174 -78 -8 8
-12 20 -8 25 3 5 52 36 108 67 57 32 123 70 148 85 59 35 275 152 320 172 43
20 53 22 48 6z m52 -53 c0 -15 -60 -60 -130 -95 -24 -12 -56 -31 -70 -40 -14
-10 -79 -49 -145 -88 -178 -104 -180 -105 -218 -129 -30 -18 -38 -19 -54 -8
-17 13 -17 14 0 33 10 11 33 26 50 33 18 7 51 25 74 41 23 15 44 28 47 28 3 0
72 38 153 84 304 171 293 166 293 141z m-5567 -93 c15 -15 27 -33 27 -39 0
-15 -27 -24 -54 -17 -26 6 -76 -29 -75 -54 0 -9 34 -45 75 -79 65 -54 79 -61
105 -56 43 8 38 -15 -17 -76 -52 -57 -91 -70 -80 -25 6 23 0 33 -50 78 -107
95 -104 93 -126 66 -14 -17 -18 -36 -16 -63 4 -54 -20 -70 -59 -41 -53 40 -54
38 116 226 53 60 103 108 112 108 8 0 27 -13 42 -28z m4573 -44 c77 -80 194
-216 194 -226 0 -15 -61 -54 -76 -48 -9 3 -14 20 -14 46 0 38 -23 90 -40 90
-4 0 -44 -32 -89 -71 -70 -61 -80 -73 -75 -95 10 -41 -20 -29 -70 28 -25 29
-46 57 -46 61 0 5 12 7 27 4 29 -5 43 4 146 101 l48 44 -22 24 c-16 17 -34 24
-59 24 -54 0 -66 18 -33 52 15 15 32 28 38 28 6 0 38 -28 71 -62z m-4914 -335
c25 -22 23 -41 -7 -55 -13 -6 -27 -19 -30 -28 -6 -20 18 -95 31 -95 60 2 164
20 183 32 19 13 25 13 37 1 11 -11 7 -21 -23 -61 l-36 -49 -62 7 c-72 7 -104
-4 -128 -45 -18 -30 -15 -35 31 -59 16 -9 27 -9 43 0 17 8 24 8 34 -3 11 -11
7 -24 -23 -75 -36 -61 -55 -79 -73 -67 -5 3 -9 17 -9 32 0 24 -12 33 -88 75
-69 39 -91 46 -104 38 -25 -16 -48 -13 -48 5 0 8 17 44 38 80 40 69 63 79 72
29 3 -18 15 -34 30 -42 22 -11 27 -10 43 9 14 17 17 31 12 58 -4 19 -11 40
-15 45 -5 6 -12 29 -15 50 -5 34 -1 48 24 88 32 50 53 57 83 30z m5242 -68
c45 -68 45 -78 4 -70 -24 4 -40 0 -58 -14 -23 -19 -24 -22 -10 -43 40 -62 70
-134 70 -168 0 -52 -36 -85 -83 -76 -19 4 -46 16 -60 27 -34 26 -170 227 -162
239 3 5 18 7 34 4 39 -8 191 97 191 133 0 42 34 27 74 -32z m557 -128 c-1 -4
-3 -6 -6 -4 -2 1 -10 -6 -17 -15 -7 -10 -24 -19 -37 -21 -13 -2 -29 -10 -35
-18 -17 -23 -103 -79 -121 -79 -39 0 -3 35 95 90 99 55 123 64 121 47z m89
-37 c0 -5 -5 -10 -10 -10 -6 0 -20 -9 -32 -20 -24 -22 -42 -26 -36 -8 4 12 55
46 71 47 4 1 7 -3 7 -9z m-90 -49 c0 -5 -41 -34 -92 -65 -69 -43 -93 -54 -100
-44 -4 7 -8 15 -8 18 0 7 133 70 148 70 6 0 12 4 12 9 0 5 8 12 18 14 9 3 18
5 20 6 1 0 2 -3 2 -8z m-5 -91 c3 -5 -1 -10 -9 -10 -9 0 -16 -4 -16 -8 0 -5
-12 -15 -27 -23 -16 -7 -41 -24 -57 -37 -29 -23 -30 -23 -43 -6 -11 15 -11 20
-1 23 28 9 55 22 93 45 46 28 52 30 60 16z m71 -45 c-11 -8 -26 -15 -34 -15
-7 0 -11 -4 -8 -9 3 -5 -10 -16 -28 -25 -19 -9 -36 -20 -38 -24 -2 -4 -19 -18
-39 -30 -35 -21 -37 -21 -42 -3 -4 18 26 41 55 41 6 0 25 11 42 23 37 28 87
56 101 56 6 0 1 -6 -9 -14z m-16 -100 c-14 -16 -40 -20 -40 -6 0 10 17 19 39
20 11 1 11 -2 1 -14z m-70 -34 c0 -5 -15 -21 -32 -35 -23 -18 -35 -22 -40 -13
-12 19 -10 24 25 41 37 18 47 20 47 7z m10 -76 c0 -10 -44 -44 -52 -39 -15 9
-8 24 11 24 11 0 23 5 26 10 6 10 15 13 15 5z m-2 -94 c11 -7 11 -9 -1 -14
-16 -6 -27 0 -27 15 0 10 11 10 28 -1z m47 -69 c-3 -3 -11 0 -18 7 -9 10 -8
11 6 5 10 -3 15 -9 12 -12z m-25 -6 c0 -3 -4 -8 -10 -11 -5 -3 -10 -1 -10 4 0
6 5 11 10 11 6 0 10 -2 10 -4z m-6102 -78 c2 -26 9 -39 22 -43 16 -5 46 -63
36 -72 -2 -2 -24 2 -50 9 -40 11 -51 10 -74 -3 -22 -12 -28 -24 -32 -62 -3
-26 -9 -49 -15 -50 -10 -2 -101 171 -94 177 2 2 40 22 84 45 98 50 119 50 123
-1z m6131 1 c-16 -10 -23 -4 -14 10 3 6 11 8 17 5 6 -4 5 -9 -3 -15z m-305
-133 c3 -14 1 -37 -5 -53 -9 -24 -12 -26 -22 -12 -7 9 -20 15 -29 13 -10 -1
-18 2 -18 7 0 6 -4 7 -10 4 -5 -3 -20 1 -32 9 -19 13 -19 16 -5 16 9 0 34 9
54 20 49 26 60 25 67 -4z m356 -6 c0 -5 -7 -10 -15 -10 -8 0 -15 5 -15 10 0 6
7 10 15 10 8 0 15 -4 15 -10z m30 -150 c0 -5 -5 -10 -11 -10 -5 0 -7 5 -4 10
3 6 8 10 11 10 2 0 4 -4 4 -10z m6 -97 c-10 -10 -19 5 -10 18 6 11 8 11 12 0
2 -7 1 -15 -2 -18z m-649 -285 c-3 -7 -5 -2 -5 12 0 14 2 19 5 13 2 -7 2 -19
0 -25z m20 -260 c-3 -8 -6 -5 -6 6 -1 11 2 17 5 13 3 -3 4 -12 1 -19z m-787
-263 c46 -14 89 -30 94 -35 6 -6 7 -10 4 -10 -13 0 -198 62 -198 66 0 7 12 4
100 -21z m210 -71 l25 -15 -35 6 c-39 6 -66 25 -34 25 10 -1 30 -8 44 -16z
m-4910 -719 c0 -13 -91 -184 -100 -190 -14 -9 -200 80 -200 95 0 6 15 17 34
25 19 8 37 24 41 35 7 22 23 25 57 9 18 -8 36 -6 78 9 56 20 90 26 90 17z
m5626 -15 c36 -13 71 -19 90 -15 23 4 33 1 38 -10 3 -9 0 -18 -8 -21 -8 -3
-30 -32 -51 -65 -20 -32 -43 -59 -51 -59 -11 0 -104 165 -104 185 0 10 27 5
86 -15z m-574 -372 c-7 -7 -12 -8 -12 -2 0 14 12 26 19 19 2 -3 -1 -11 -7 -17z
m-4767 -232 c21 -40 26 -59 18 -67 -8 -8 -16 -7 -31 2 -17 10 -24 10 -46 -4
-33 -22 -33 -40 0 -66 20 -16 41 -21 86 -21 71 0 89 -9 118 -55 l22 -36 -23
-25 c-31 -33 -44 -30 -63 16 -15 39 -17 40 -64 40 l-47 0 -15 -67 c-8 -38 -13
-89 -12 -115 1 -36 -2 -48 -13 -48 -19 0 -87 91 -82 110 3 8 16 43 28 77 23
59 23 63 6 97 -19 42 -28 44 -68 15 -20 -14 -28 -27 -24 -39 3 -9 -1 -23 -9
-29 -12 -10 -19 -6 -39 21 -43 59 -69 107 -62 118 8 13 38 13 51 0 6 -6 40 8
97 41 68 40 87 55 87 73 0 12 5 27 12 34 16 16 35 -3 73 -72z m5215 -36 c33
-18 42 -66 22 -123 -25 -73 -138 -239 -160 -235 -11 2 -16 11 -14 25 2 16 -8
30 -40 52 -24 17 -62 44 -85 60 -33 24 -48 29 -72 25 -41 -9 -40 5 7 72 40 58
72 71 72 29 0 -23 44 -65 56 -53 3 3 22 29 44 58 65 87 120 117 170 90z m-388
-327 c16 -20 -9 -43 -48 -43 -22 0 -42 -8 -56 -22 l-22 -22 79 -73 c73 -68 81
-73 112 -67 18 3 33 2 33 -2 0 -5 -23 -35 -51 -66 -56 -64 -84 -75 -75 -30 5
24 -3 35 -75 101 l-82 75 -19 -23 c-11 -14 -18 -37 -16 -55 2 -35 -7 -56 -24
-56 -17 0 -58 41 -58 57 0 8 52 72 116 143 l117 130 29 -18 c16 -9 34 -23 40
-29z m-4457 -116 l109 -118 -37 -36 c-31 -32 -38 -35 -52 -23 -12 10 -15 23
-11 44 7 33 -17 79 -38 74 -8 -2 -44 -31 -81 -66 -60 -57 -67 -66 -61 -93 10
-52 -19 -48 -80 12 -63 62 -66 84 -12 84 30 0 46 9 102 63 36 35 66 67 66 71
0 4 -11 18 -24 30 -17 16 -31 21 -46 16 -22 -7 -50 9 -50 30 0 6 17 24 37 38
36 25 38 26 53 9 9 -9 65 -70 125 -135z m3822 31 c-2 -13 -4 -3 -4 22 0 25 2
35 4 23 2 -13 2 -33 0 -45z m-3545 -294 c89 -46 149 -138 133 -203 -19 -78
-109 -147 -176 -135 -127 25 -221 137 -196 236 23 91 152 147 239 102z m3814
-50 c76 -36 134 -58 159 -58 22 -1 40 -7 40 -13 0 -14 -105 -103 -122 -103 -9
0 -13 10 -11 28 3 24 -1 27 -27 30 -23 2 -41 -8 -80 -42 -43 -38 -48 -47 -39
-63 6 -10 20 -17 31 -15 12 2 23 -4 26 -12 4 -9 -14 -28 -53 -55 -70 -49 -85
-52 -75 -13 10 39 6 163 -10 251 -13 73 -12 77 8 99 11 12 24 22 27 22 4 0 61
-25 126 -56z m-357 -163 c37 -52 18 -86 -35 -63 -25 12 -74 -1 -74 -20 0 -16
80 -155 99 -173 11 -9 24 -14 29 -11 5 3 15 0 21 -8 14 -16 6 -23 -67 -61 -62
-32 -92 -29 -68 8 14 21 13 26 -15 67 -16 25 -41 66 -55 93 -21 40 -27 46 -43
38 -26 -14 -39 -33 -43 -61 -5 -37 -39 -38 -61 -1 -9 16 -17 34 -17 39 0 6 43
33 97 62 53 28 119 66 147 85 28 18 54 34 58 34 4 1 16 -12 27 -28z m-2939
-116 c58 -29 69 -44 47 -60 -19 -14 -22 -38 -7 -65 9 -16 15 -17 40 -8 24 8
30 16 30 39 0 18 5 29 14 29 13 0 106 -36 114 -44 9 -9 -13 -36 -30 -36 -11 0
-47 -12 -80 -27 -57 -26 -60 -28 -54 -57 3 -17 20 -60 37 -94 20 -41 28 -67
22 -73 -11 -11 -138 35 -149 53 -3 5 1 17 11 27 17 20 13 62 -8 80 -19 15 -77
-14 -77 -38 0 -33 -16 -33 -80 -1 -67 34 -73 54 -19 58 49 3 150 34 155 46 2
6 -9 49 -25 96 -16 46 -27 88 -25 92 9 14 33 9 84 -17z m2540 -108 c13 -24 13
-28 -1 -43 -13 -12 -21 -14 -37 -5 -73 39 -154 -29 -137 -116 9 -48 63 -103
102 -103 34 0 93 34 93 54 0 17 26 46 41 46 12 0 39 -62 32 -73 -8 -13 -116
-64 -161 -76 -83 -23 -157 21 -183 108 -28 93 27 174 146 216 39 14 75 23 80
21 6 -1 17 -14 25 -29z m-1993 -107 c51 -28 73 -66 73 -124 0 -137 -99 -201
-242 -156 -90 28 -128 70 -128 141 0 74 27 117 95 154 42 23 149 15 202 -15z
m1416 -79 c4 -18 6 -40 3 -47 -8 -21 -40 -17 -61 6 -12 13 -29 20 -44 18 -30
-3 -31 -18 -11 -137 10 -60 16 -74 36 -83 23 -11 32 -32 16 -42 -4 -2 -40 -8
-80 -11 -55 -6 -72 -5 -72 5 0 7 7 18 17 25 15 11 15 19 -2 119 -17 100 -20
106 -42 106 -16 0 -30 -10 -41 -30 -31 -55 -72 -46 -72 16 0 42 10 47 135 64
50 7 108 16 130 20 66 13 78 8 88 -29z m-1091 13 c16 -10 8 -42 -12 -47 -16
-4 -20 -14 -20 -46 0 -38 2 -41 38 -52 21 -6 49 -9 62 -7 21 2 26 9 28 41 2
26 -2 45 -13 57 -32 36 6 49 98 34 27 -5 37 -11 37 -25 0 -11 -6 -19 -14 -19
-19 0 -23 -15 -31 -119 -7 -80 -5 -94 10 -111 32 -36 14 -48 -59 -39 -37 5
-71 11 -76 14 -14 9 -1 32 21 38 16 4 20 12 17 39 -3 32 -5 33 -54 39 -66 8
-119 26 -135 46 -8 9 -13 38 -12 74 1 32 -2 61 -7 64 -6 4 -10 13 -10 22 0 13
9 15 62 9 34 -4 66 -10 70 -12z m639 -57 c16 -60 -18 -88 -56 -47 -14 16 -31
20 -77 20 l-59 0 3 -37 c3 -33 7 -38 31 -41 16 -2 39 4 52 12 44 29 55 22 55
-39 0 -59 -10 -67 -46 -40 -10 8 -36 15 -57 15 l-38 0 3 -42 3 -43 58 -3 c53
-3 59 -1 86 29 40 44 63 34 59 -23 l-3 -43 -150 -3 c-171 -3 -191 1 -157 28
20 17 22 26 22 123 0 81 -3 107 -15 117 -8 7 -15 19 -15 26 0 10 30 14 138 16
75 2 141 3 146 3 6 -1 13 -13 17 -28z"/>
<path d="M2555 6468 c-47 -26 -65 -51 -65 -92 0 -83 69 -148 134 -126 56 18
69 40 64 111 -4 54 -8 66 -36 90 -34 31 -64 36 -97 17z"/>
<path d="M1535 5936 c-54 -24 -87 -79 -76 -125 8 -32 68 -89 102 -96 34 -8 82
16 105 50 31 48 -4 138 -66 170 -34 18 -28 17 -65 1z"/>
<path d="M5433 5864 c-41 -18 -42 -35 -3 -57 30 -18 30 -18 39 6 24 63 16 74
-36 51z"/>
<path d="M6007 5095 l-37 -26 31 -45 c50 -74 109 -86 109 -23 0 31 -43 119
-58 119 -4 0 -24 -11 -45 -25z"/>
<path d="M6142 1724 c-13 -9 -34 -34 -49 -57 l-26 -41 29 -23 c16 -13 35 -23
42 -23 17 0 72 89 72 117 0 12 -9 27 -19 33 -25 13 -22 13 -49 -6z"/>
<path d="M1550 1021 c-33 -35 -40 -49 -40 -82 0 -67 70 -121 135 -105 30 8 78
86 78 128 0 40 -48 87 -96 95 -34 5 -41 2 -77 -36z"/>
<path d="M5384 988 c3 -13 6 -31 6 -40 0 -23 22 -23 43 0 23 25 22 29 -13 47
-39 20 -43 19 -36 -7z"/>
<path d="M2577 529 c-49 -29 -64 -139 -23 -178 43 -41 128 -48 150 -12 15 23
23 105 14 137 -14 53 -91 82 -141 53z"/>
<path d="M4177 5936 c-72 -30 -109 -54 -105 -68 5 -14 204 -69 233 -66 11 2
28 -5 37 -14 24 -24 88 -40 105 -26 10 8 13 7 13 -6 0 -20 59 -51 72 -38 14
14 -11 97 -43 142 -16 22 -48 53 -71 70 -36 27 -49 30 -112 30 -51 0 -87 -7
-129 -24z"/>
<path d="M2325 5816 c-45 -20 -100 -84 -128 -146 -38 -87 -50 -120 -45 -125 3
-3 98 43 212 101 156 80 206 110 204 122 -2 10 -23 27 -48 40 -51 26 -146 30
-195 8z"/>
<path d="M3412 5753 c-16 -14 -24 -47 -41 -158 -25 -165 -26 -213 -6 -251 8
-16 15 -36 14 -44 0 -8 -6 1 -13 20 -7 19 -17 35 -21 35 -18 0 -25 -75 -36
-360 l-12 -290 59 -144 c32 -80 64 -146 69 -148 10 -3 76 263 75 306 0 13 -16
96 -36 183 -19 88 -33 165 -31 171 2 7 7 -6 11 -28 14 -81 58 -250 66 -259 10
-10 14 -2 25 48 3 15 8 27 10 25 2 -3 -3 -36 -11 -74 -14 -63 -14 -77 1 -148
9 -43 14 -81 11 -84 -3 -3 -7 6 -11 21 -3 14 -7 38 -11 52 -9 45 -21 15 -48
-124 -31 -159 -31 -157 -6 -210 11 -23 25 -55 31 -70 9 -23 12 -24 19 -11 13
23 39 258 33 297 -4 24 -2 31 8 27 9 -3 24 14 43 51 16 30 49 78 74 105 l45
50 -7 222 c-8 242 -20 362 -37 383 -6 8 -9 29 -7 47 6 34 1 57 -11 57 -4 0
-26 -27 -49 -60 -24 -33 -49 -60 -56 -60 -17 0 -136 126 -136 143 0 16 75 119
152 210 32 38 56 73 53 78 -4 5 -48 9 -99 9 -75 0 -98 -4 -114 -17z m-13 -523
c0 -10 -3 -8 -9 5 -12 27 -12 43 0 25 5 -8 9 -22 9 -30z m28 -132 c-3 -7 -5
-2 -5 12 0 14 2 19 5 13 2 -7 2 -19 0 -25z m150 -130 c-3 -7 -5 -2 -5 12 0 14
2 19 5 13 2 -7 2 -19 0 -25z"/>
<path d="M3210 5753 c-61 -6 -162 -24 -252 -45 -93 -21 -104 -31 -74 -73 38
-55 98 -187 105 -233 5 -31 25 -81 53 -129 25 -43 78 -154 118 -248 101 -239
97 -232 104 -165 3 30 10 136 16 235 6 99 18 217 26 263 9 46 13 91 10 99 -4
9 -2 21 4 28 12 14 50 204 50 247 0 28 -1 28 -62 26 -35 0 -79 -3 -98 -5z"/>
<path d="M3824 5675 c-71 -80 -88 -110 -109 -196 -15 -62 -15 -73 -1 -150 9
-46 22 -186 28 -311 7 -126 15 -228 18 -228 4 0 44 89 90 198 78 185 147 327
176 362 6 8 16 62 20 120 l9 105 5 -70 5 -70 64 105 c36 57 66 99 68 93 2 -6
-24 -62 -58 -124 -35 -63 -68 -125 -76 -139 -7 -14 -14 -63 -15 -110 -2 -76
-2 -78 -5 -22 -2 34 -7 62 -11 62 -13 0 -59 -94 -126 -255 -37 -88 -73 -175
-81 -193 -26 -56 -22 -56 88 9 79 47 87 54 92 88 11 63 13 67 14 29 1 -50 14
-49 92 8 105 77 167 132 213 193 43 56 46 62 75 221 30 157 30 165 14 181 -23
21 -123 59 -243 93 -52 15 -117 33 -145 41 -27 8 -71 18 -96 21 l-46 6 -59
-67z m213 -552 c-3 -10 -5 -4 -5 12 0 17 2 24 5 18 2 -7 2 -21 0 -30z"/>
<path d="M1946 5591 c-222 -150 -508 -446 -674 -697 -115 -174 -241 -408 -228
-421 2 -2 26 7 53 20 26 14 68 31 93 38 55 15 83 37 77 61 -3 11 0 18 9 18 7
0 25 22 39 50 23 45 160 246 192 280 7 8 32 40 56 70 23 30 87 101 142 158 55
57 101 112 103 123 2 10 10 19 19 19 41 0 123 84 123 127 0 10 14 56 30 103
16 46 28 86 26 87 -2 2 -29 -14 -60 -36z m-71 -181 c18 -8 18 -9 -5 -9 -36 -2
-51 -14 -60 -52 l-8 -34 -1 42 c-1 55 25 74 74 53z m-609 -701 c-14 -11 -26
-28 -26 -37 -1 -15 -2 -14 -12 2 -9 16 -7 23 12 38 12 10 29 18 37 18 11 0 7
-7 -11 -21z"/>
<path d="M2652 5610 c-23 -11 -45 -26 -48 -34 -7 -17 29 -234 52 -316 9 -30
18 -75 20 -100 4 -46 80 -309 94 -323 10 -12 32 77 35 144 1 31 5 61 9 67 9
15 10 256 1 307 -20 118 -59 227 -90 259 -20 19 -19 19 -73 -4z"/>
<path d="M2409 5498 c-80 -40 -158 -83 -174 -96 -17 -13 -49 -36 -72 -53 -36
-24 -43 -35 -43 -62 0 -28 10 -41 75 -97 42 -36 89 -72 105 -80 16 -8 30 -20
30 -26 0 -6 39 -42 86 -80 48 -38 98 -82 112 -99 73 -88 205 -224 213 -220 4
3 11 20 14 38 5 25 -7 77 -44 196 -44 141 -72 255 -88 366 -23 165 -49 285
-61 285 -5 0 -73 -33 -153 -72z"/>
<path d="M4441 5478 c-7 -46 -14 -101 -17 -123 l-5 -40 35 39 c35 38 76 128
76 165 0 17 -42 41 -70 41 -4 0 -13 -37 -19 -82z"/>
<path d="M3697 5503 c-4 -3 -7 -11 -7 -17 0 -6 5 -5 12 2 6 6 9 14 7 17 -3 3
-9 2 -12 -2z"/>
<path d="M4665 5448 c-2 -7 -9 -33 -16 -58 -38 -152 -133 -300 -284 -445 -62
-60 -63 -61 -99 -184 -20 -68 -35 -126 -32 -128 2 -2 46 40 97 94 234 244 267
277 311 310 45 35 57 55 98 167 6 16 13 26 16 24 3 -3 -3 -24 -12 -47 -9 -23
-14 -44 -11 -47 3 -4 44 24 91 61 47 37 86 63 86 58 0 -7 -176 -168 -201 -183
-4 -3 -20 -30 -33 -60 -14 -30 -23 -43 -20 -27 4 15 3 27 -1 27 -19 0 -117
-97 -279 -277 l-181 -201 -44 -146 c-24 -81 -41 -149 -38 -152 6 -6 81 42 127
82 14 11 34 24 45 28 24 9 25 10 -97 -88 -95 -75 -98 -78 -118 -142 -21 -70
-25 -94 -12 -94 4 0 34 12 68 27 56 26 64 33 95 93 18 36 51 94 72 130 21 36
36 73 33 84 -3 11 5 27 19 40 13 11 45 62 71 111 26 50 51 95 56 100 12 14 -1
-18 -35 -84 -16 -29 -26 -59 -23 -67 3 -8 -5 -24 -18 -36 -29 -27 -168 -302
-156 -306 5 -2 71 28 147 67 115 58 144 77 170 113 17 24 60 80 95 125 34 45
105 137 157 204 l95 123 3 86 c5 92 15 110 63 110 14 0 34 6 43 13 21 16 97
147 97 167 0 17 -60 77 -130 131 -25 19 -58 45 -73 59 -16 14 -43 34 -61 45
-18 11 -61 39 -96 63 -68 45 -78 49 -85 30z m-64 -605 c-11 -21 -20 -35 -21
-31 0 12 33 78 38 74 2 -2 -6 -21 -17 -43z m-61 -123 c-21 -41 -35 -54 -23
-22 8 21 34 62 39 62 3 0 -5 -18 -16 -40z m-47 -85 c-3 -9 -8 -14 -10 -11 -3
3 -2 9 2 15 9 16 15 13 8 -4z"/>
<path d="M3017 5113 c1 -82 11 -220 23 -308 l21 -160 62 -95 c34 -52 74 -112
89 -133 l27 -38 5 33 c3 18 7 90 10 160 l5 127 -85 213 c-93 232 -144 348
-153 348 -3 0 -5 -66 -4 -147z"/>
<path d="M2124 5158 c4 -40 18 -139 32 -221 14 -81 23 -151 20 -155 -3 -5 -20
-7 -37 -4 l-33 5 25 -41 c13 -23 101 -142 196 -265 l172 -223 141 -73 c78 -40
143 -71 146 -68 6 5 -109 244 -139 289 -13 19 -27 48 -30 64 -7 28 -6 28 12
-6 10 -19 28 -44 40 -54 12 -11 21 -29 21 -40 0 -12 4 -27 9 -34 4 -8 9 24 9
75 1 48 7 123 13 165 l11 77 -133 142 c-142 153 -212 219 -233 219 -8 0 -19
14 -26 30 -7 17 -16 30 -20 30 -4 0 -49 36 -99 80 -51 44 -95 80 -98 80 -3 0
-3 -33 1 -72z m294 -293 c-3 -3 -9 2 -12 12 -6 14 -5 15 5 6 7 -7 10 -15 7
-18z m66 -121 c3 -8 2 -12 -4 -9 -6 3 -10 10 -10 16 0 14 7 11 14 -7z m106
-204 c6 -11 8 -20 6 -20 -3 0 -10 9 -16 20 -6 11 -8 20 -6 20 3 0 10 -9 16
-20z"/>
<path d="M1780 5017 c-92 -96 -181 -208 -228 -286 -25 -43 -25 -44 -6 -58 18
-13 18 -14 -7 -8 -29 7 -35 2 -73 -67 -24 -44 -25 -48 -8 -57 9 -5 35 -12 57
-16 22 -4 73 -22 112 -40 205 -94 382 -272 531 -535 45 -79 69 -90 262 -116
91 -12 167 -20 170 -17 7 7 -219 220 -252 238 -16 9 -28 20 -28 25 0 14 16 12
29 -4 6 -8 25 -19 41 -26 17 -7 30 -18 30 -25 0 -12 185 -185 225 -210 23 -15
165 -30 165 -18 0 4 -22 37 -49 73 l-48 66 -109 37 c-60 21 -93 35 -74 31 19
-3 53 -12 75 -20 40 -14 75 -18 75 -10 0 8 -187 251 -201 263 -25 19 -453 240
-511 263 -32 12 -64 20 -72 17 -8 -3 -24 5 -37 19 -12 13 -26 24 -31 24 -15 0
-170 62 -165 66 2 2 30 -5 62 -16 32 -11 65 -20 73 -20 9 0 23 -6 31 -13 9 -8
54 -26 101 -42 47 -15 176 -75 288 -133 112 -57 205 -102 208 -99 3 2 -61 92
-142 198 -80 107 -155 212 -166 234 -26 51 -33 55 -90 55 -41 0 -48 3 -52 23
-20 94 -26 129 -31 178 -6 55 -35 119 -55 119 -5 0 -50 -42 -100 -93z m501
-894 c13 -16 12 -17 -3 -4 -10 7 -18 15 -18 17 0 8 8 3 21 -13z"/>
<path d="M5123 5077 c-25 -32 -58 -106 -50 -113 10 -11 187 20 179 31 -4 6
-30 32 -58 58 l-51 49 -20 -25z"/>
<path d="M2991 4885 c-7 -16 -13 -50 -14 -75 -1 -25 -8 -49 -15 -55 -14 -11
-62 -194 -62 -234 0 -19 24 -50 86 -115 47 -48 88 -86 91 -83 3 4 1 41 -5 84
-6 43 -14 111 -18 152 -4 47 -15 89 -30 117 -18 34 -20 42 -7 37 14 -5 15 3 8
70 -3 42 -10 89 -15 104 l-7 28 -12 -30z"/>
<path d="M4163 4796 c-50 -29 -103 -60 -117 -69 -51 -34 -69 -96 -94 -325 -5
-40 -5 -75 -2 -77 4 -2 54 47 111 110 l103 114 48 143 c26 79 47 146 45 150
-1 3 -43 -17 -94 -46z"/>
<path d="M5215 4775 c-185 -27 -309 -53 -313 -65 -3 -7 -71 -101 -153 -210
-82 -109 -149 -200 -149 -204 0 -3 105 48 233 112 127 65 259 127 292 136 35
11 74 32 94 50 19 17 30 25 26 17 -10 -17 5 -14 119 23 112 36 83 17 -59 -39
-66 -26 -127 -53 -136 -61 -9 -8 -18 -11 -21 -8 -18 17 -564 -257 -607 -304
l-24 -27 84 -7 c46 -3 161 -25 254 -48 94 -23 195 -44 226 -47 56 -5 58 -5
134 48 43 29 87 66 98 81 11 15 25 28 30 28 14 0 246 190 257 210 10 18 -31
104 -111 231 -27 43 -49 83 -49 89 0 14 -114 11 -225 -5z"/>
<path d="M5635 4759 c-3 -4 3 -17 15 -29 11 -11 20 -24 20 -30 0 -15 54 -100
64 -100 5 0 19 8 30 18 20 17 20 17 3 -10 -24 -38 -22 -49 19 -136 19 -42 45
-101 56 -130 11 -29 25 -51 31 -49 23 7 75 109 82 157 11 78 -16 160 -67 206
-54 50 -240 125 -253 103z"/>
<path d="M3920 4653 c-45 -29 -92 -77 -121 -122 -23 -36 -29 -56 -29 -102 0
-32 4 -60 8 -63 5 -3 26 22 47 54 21 33 40 60 42 60 5 0 -7 -21 -51 -94 -32
-53 -36 -67 -35 -125 1 -106 5 -109 71 -48 l57 52 22 153 c12 83 19 155 14
160 -4 4 -10 2 -12 -4 -2 -6 -11 -20 -19 -30 -9 -10 0 11 20 47 42 78 38 97
-14 62z"/>
<path d="M3286 4460 l-6 -141 42 -64 c24 -36 46 -65 49 -65 7 0 39 112 39 135
0 17 -97 255 -109 268 -4 4 -11 -56 -15 -133z"/>
<path d="M3080 4548 c0 -13 7 -79 17 -148 l16 -125 53 -55 c29 -30 55 -52 59
-48 4 3 9 39 12 80 5 68 3 76 -24 118 -16 25 -51 80 -77 123 -26 42 -49 77
-52 77 -2 0 -4 -10 -4 -22z"/>
<path d="M4113 4446 c-4 -7 -41 -49 -82 -92 -95 -103 -99 -109 -102 -174 -3
-84 -3 -83 29 -66 76 40 92 64 136 209 24 75 39 137 35 137 -4 0 -12 -6 -16
-14z"/>
<path d="M2900 4433 c0 -61 55 -156 146 -251 l55 -57 -5 64 c-6 61 -8 65 -75
140 -38 42 -81 87 -95 100 -25 24 -26 24 -26 4z"/>
<path d="M5518 4352 c-50 -43 -83 -79 -77 -83 6 -3 -2 -9 -18 -12 -15 -3 -69
-36 -120 -74 -50 -37 -99 -73 -110 -79 -30 -19 -9 -27 84 -32 110 -5 277 19
371 54 89 33 99 43 81 86 -36 93 -101 218 -112 217 -6 0 -51 -35 -99 -77z
m-15 -79 c-7 -2 -19 -2 -25 0 -7 3 -2 5 12 5 14 0 19 -2 13 -5z"/>
<path d="M1083 4392 c-47 -25 -98 -75 -117 -116 -33 -69 -14 -221 36 -296 32
-47 46 -48 53 -3 11 72 79 290 130 416 6 14 1 17 -31 17 -22 -1 -54 -9 -71
-18z"/>
<path d="M1312 4283 c-52 -131 -105 -311 -100 -341 1 -10 -3 -26 -8 -37 -6
-11 -17 -49 -24 -84 l-13 -64 42 -40 c40 -37 45 -39 89 -33 55 7 86 -7 62 -27
-22 -18 -19 -377 3 -391 34 -22 65 23 33 48 -21 16 -30 230 -11 250 10 10 11
16 2 25 -8 8 -7 11 6 11 20 0 23 40 5 58 -6 6 -8 15 -4 19 4 5 131 9 282 11
238 3 274 1 274 -12 0 -8 -4 -18 -10 -21 -6 -4 -10 -80 -10 -195 l0 -190 24
-6 c34 -8 46 2 46 37 0 19 -5 29 -15 29 -8 0 -15 4 -15 9 0 5 7 11 15 15 23 8
18 51 -7 69 l-23 16 23 0 c23 1 23 3 21 101 -1 56 -6 103 -11 106 -4 3 -8 14
-8 25 0 16 7 19 55 19 31 0 55 4 55 10 0 11 -75 136 -94 157 -15 17 -319 56
-383 50 -29 -3 -55 -1 -58 4 -10 15 176 11 296 -7 61 -9 113 -13 116 -10 3 3
-7 25 -22 48 -62 96 -129 169 -217 238 -51 41 -117 96 -145 122 -53 49 -132
92 -190 104 l-30 6 -51 -129z m156 -370 c-32 -2 -84 -2 -115 0 -32 2 -6 3 57
3 63 0 89 -1 58 -3z"/>
<path d="M3427 4241 c-4 -18 -7 -51 -7 -73 0 -40 0 -40 23 -26 30 20 31 36 9
88 l-19 44 -6 -33z"/>
<path d="M3280 4226 c0 -9 9 -26 20 -38 16 -17 17 -24 8 -37 -7 -9 -8 -13 -4
-9 5 4 15 3 23 -3 7 -6 13 -9 13 -6 0 12 -25 63 -42 86 -14 18 -18 20 -18 7z"/>
<path d="M3135 4160 c4 -25 12 -56 18 -70 8 -20 11 -22 14 -7 3 9 11 17 19 17
8 0 14 4 14 9 0 7 -50 75 -67 91 -3 3 -2 -15 2 -40z"/>
<path d="M2643 4068 l94 -123 73 -22 c41 -12 76 -20 78 -18 6 6 -16 58 -46
112 -21 38 -38 50 -152 108 -71 36 -132 65 -135 65 -4 0 36 -55 88 -122z"/>
<path d="M3846 4144 c-20 -26 -33 -50 -28 -53 5 -3 11 -14 15 -23 12 -33 35
-7 47 54 6 33 9 62 7 65 -3 2 -21 -17 -41 -43z"/>
<path d="M2810 4137 c0 -17 30 -65 45 -70 8 -4 15 -3 15 1 -1 10 -60 78 -60
69z"/>
<path d="M3955 4059 c-28 -29 -42 -49 -33 -46 10 3 20 2 23 -3 4 -6 1 -10 -6
-10 -10 0 -10 -3 -1 -12 21 -21 52 19 76 100 11 34 -5 26 -59 -29z"/>
<path d="M4210 4060 c-8 -5 -12 -11 -9 -14 2 -3 11 -1 19 4 8 5 12 11 9 14 -2
3 -11 1 -19 -4z"/>
<path d="M2881 3998 c6 -13 25 -44 42 -70 25 -38 38 -48 60 -48 40 0 34 19
-26 83 -55 59 -99 79 -76 35z"/>
<path d="M4094 3992 c-21 -16 -47 -31 -56 -35 -17 -6 -26 -57 -10 -57 10 0 92
66 108 87 31 41 11 43 -42 5z"/>
<path d="M5680 3975 l-85 -44 90 -2 c88 -2 86 -2 -65 -15 -85 -7 -227 -16
-315 -19 -88 -3 -198 -12 -245 -20 -47 -8 -131 -21 -187 -29 -99 -15 -104 -17
-205 -83 l-103 -68 169 -3 c115 -2 173 1 182 9 8 6 21 8 30 5 14 -5 16 -18 12
-77 -3 -38 -8 -72 -11 -76 -4 -3 -17 1 -29 8 -17 11 -58 13 -169 11 l-147 -3
2 -47 1 -47 95 1 c52 1 106 3 120 5 23 4 25 1 28 -40 3 -41 5 -43 30 -38 15 3
57 11 94 18 l68 13 -3 103 c-3 78 -8 107 -20 121 -10 10 -15 21 -12 24 3 3
101 3 218 0 240 -5 262 -10 305 -74 18 -28 30 -37 41 -32 9 4 30 9 46 11 29 5
29 5 10 -11 -11 -8 -27 -16 -35 -16 -26 0 -40 -22 -40 -63 0 -36 2 -38 28 -35
21 2 27 8 26 26 -2 49 104 153 186 183 l61 22 -6 46 c-22 161 -51 281 -68 280
-7 0 -50 -20 -97 -44z"/>
<path d="M4532 3999 c-67 -13 -139 -58 -221 -137 l-76 -73 75 6 c41 4 81 11
87 17 7 6 20 7 29 4 9 -3 87 3 173 15 147 20 160 23 224 61 37 22 67 43 67 47
0 9 -48 26 -125 44 -116 28 -132 28 -167 -1 -21 -17 -27 -19 -15 -6 15 18 14
36 -2 33 -3 -1 -25 -5 -49 -10z m18 -64 c-7 -8 -17 -15 -23 -15 -6 0 -2 7 9
15 25 19 30 19 14 0z m-70 -58 c0 -2 -12 -14 -27 -28 l-28 -24 24 28 c23 25
31 32 31 24z"/>
<path d="M4885 3903 c-50 -33 -49 -32 -44 -37 5 -6 240 22 247 28 6 7 -9 12
-76 25 -74 15 -82 14 -127 -16z"/>
<path d="M2780 3899 c0 -6 21 -35 46 -65 36 -42 53 -54 75 -54 25 0 29 4 29
28 0 15 -4 33 -8 40 -11 17 -142 64 -142 51z"/>
<path d="M868 3894 c-10 -17 -28 -109 -30 -159 l-3 -50 64 0 c43 0 66 -4 68
-12 3 -7 -2 -16 -11 -19 -23 -9 -24 -264 -2 -264 23 0 44 77 50 176 l5 91 -51
84 c-28 46 -58 102 -68 123 -9 22 -19 36 -22 30z"/>
<path d="M2241 3808 c6 -12 32 -43 57 -70 43 -46 47 -48 98 -48 30 0 54 3 54
8 0 9 -196 132 -210 132 -7 0 -7 -8 1 -22z"/>
<path d="M2340 3808 c23 -22 177 -118 189 -118 6 0 11 -9 11 -20 0 -11 -4 -20
-10 -20 -6 0 -10 -87 -10 -241 0 -213 2 -243 17 -254 32 -24 4 -35 -91 -35
-69 0 -97 4 -105 14 -10 11 -8 16 5 24 14 8 19 26 21 85 2 52 -1 78 -9 84 -7
4 -50 17 -96 28 -115 28 -110 38 32 68 33 7 61 18 63 24 2 6 -15 20 -39 32
-50 25 -95 58 -88 64 3 3 32 7 64 9 36 2 61 8 64 16 3 9 -19 12 -90 12 -51 0
-98 -4 -104 -8 -7 -4 -13 -61 -16 -157 -5 -174 -22 -227 -85 -266 -32 -20 -48
-22 -160 -21 -68 1 -128 4 -133 7 -6 3 -5 16 0 31 12 30 13 111 3 117 -5 3
-48 -5 -96 -18 -49 -12 -84 -18 -79 -13 6 6 48 20 94 32 l83 22 0 80 0 79 -82
20 c-126 31 -128 48 -3 20 92 -20 90 -21 90 30 l0 45 -91 0 c-134 0 -129 5
-129 -157 0 -160 -10 -199 -62 -250 l-39 -38 -122 -3 c-113 -4 -123 -6 -146
-28 l-24 -24 17 -91 c25 -138 13 -129 179 -129 78 0 160 5 182 10 22 6 123 14
225 19 102 5 253 19 335 31 l150 22 124 80 c68 43 131 77 140 75 10 -2 -22
-28 -82 -68 -83 -54 -94 -64 -73 -67 36 -5 264 27 290 39 11 6 42 32 69 57 26
26 47 42 47 37 0 -6 -19 -27 -42 -47 -24 -20 -40 -39 -37 -43 4 -3 36 -1 72 5
60 11 69 16 102 56 l36 44 -55 0 c-68 0 -73 14 -18 59 l37 31 -23 18 c-28 22
-20 32 28 32 43 0 71 23 52 42 -17 17 -15 38 3 38 8 0 21 15 29 34 8 18 19 37
25 40 6 4 11 15 11 24 0 9 -53 -37 -125 -108 -111 -111 -146 -160 -115 -160 6
0 10 -9 10 -20 0 -19 -7 -20 -100 -20 -100 0 -119 7 -89 37 12 12 21 104 11
119 -4 6 -15 13 -25 17 -10 4 -15 11 -12 17 4 6 11 8 16 5 11 -7 29 36 29 70
0 16 -9 28 -27 37 -27 13 -28 17 -31 98 -2 65 0 87 12 95 8 6 16 24 18 40 l3
30 78 3 c42 2 77 5 77 8 0 13 -88 84 -110 88 -14 3 -65 10 -115 16 -49 6 -108
13 -130 16 -35 5 -38 4 -25 -8z m-31 -654 c2 -2 -27 -4 -65 -3 -49 1 -62 3
-44 9 23 7 99 3 109 -6z"/>
<path d="M4523 3801 c-132 -17 -133 -17 -173 -56 -22 -21 -40 -43 -40 -47 0
-4 18 -8 40 -8 43 0 51 -13 28 -50 -7 -10 -9 -22 -6 -26 11 -10 57 29 60 51 2
15 12 21 41 23 26 2 66 21 122 58 47 30 87 59 90 64 8 12 2 12 -162 -9z"/>
<path d="M2745 3715 c45 -41 68 -55 90 -55 51 0 58 12 31 51 -21 31 -32 37
-89 47 -35 7 -71 12 -78 12 -8 -1 13 -25 46 -55z"/>
<path d="M4241 3760 c-20 -5 -53 -27 -80 -54 l-46 -46 43 0 c31 0 42 4 42 15
0 10 10 15 28 15 17 0 43 14 72 40 l45 39 -35 0 c-19 -1 -50 -5 -69 -9z"/>
<path d="M743 3653 c-20 -7 -18 -476 1 -492 9 -7 17 -8 20 -2 11 17 12 491 1
494 -5 2 -16 2 -22 0z"/>
<path d="M2754 3652 c-15 -9 -24 -274 -10 -269 6 2 9 53 7 116 -2 107 -2 113
19 118 13 4 19 11 16 20 -3 8 -6 17 -6 19 0 6 -14 4 -26 -4z"/>
<path d="M3980 3629 c0 -5 5 -7 10 -4 6 3 10 8 10 11 0 2 -4 4 -10 4 -5 0 -10
-5 -10 -11z"/>
<path d="M2885 3620 c27 -12 43 -12 25 0 -8 5 -22 9 -30 9 -10 0 -8 -3 5 -9z"/>
<path d="M4094 3615 c-7 -18 2 -45 14 -45 13 0 62 40 62 51 0 16 -70 10 -76
-6z"/>
<path d="M4398 3589 c-21 -15 -28 -29 -28 -54 0 -31 3 -35 36 -41 42 -8 54 4
54 53 0 65 -16 76 -62 42z"/>
<path d="M4187 3582 c-19 -21 -13 -32 15 -32 13 0 18 7 18 25 0 30 -11 32 -33
7z"/>
<path d="M5820 3558 c-49 -34 -70 -67 -76 -123 l-6 -50 52 -42 c29 -24 56 -43
60 -43 11 0 20 67 20 158 l0 82 34 0 c19 0 47 -5 62 -10 40 -16 57 5 25 31
-34 28 -127 26 -171 -3z"/>
<path d="M3390 3552 c-23 -11 -43 -33 -57 -62 -23 -45 -32 -117 -13 -105 6 3
10 17 10 31 0 31 21 73 52 101 27 25 97 46 124 37 16 -5 16 -4 4 5 -23 16 -81
13 -120 -7z"/>
<path d="M5170 3526 c0 -25 4 -48 10 -51 5 -3 50 4 100 15 92 22 152 22 70 1
-25 -7 -56 -16 -70 -20 -47 -16 8 -25 64 -11 57 14 66 23 66 62 0 39 -25 48
-139 48 l-101 0 0 -44z"/>
<path d="M4112 3508 c-19 -19 -14 -28 18 -28 35 0 81 20 74 31 -8 13 -78 11
-92 -3z"/>
<path d="M4371 3420 l-1 -60 45 0 c42 0 45 2 45 28 0 46 -11 69 -36 81 -46 21
-52 15 -53 -49z m59 26 c0 -2 -9 -6 -20 -9 -11 -3 -18 -1 -14 4 5 9 34 13 34
5z"/>
<path d="M1062 3327 c-67 -67 -122 -130 -122 -139 0 -9 7 -21 17 -26 9 -6 14
-16 10 -25 -4 -12 -18 -14 -64 -11 -32 3 -63 1 -69 -3 -8 -6 -8 -28 2 -83 7
-41 18 -106 25 -145 22 -141 112 -452 138 -478 6 -6 16 12 25 43 9 29 29 77
46 106 16 30 30 61 30 70 0 9 -15 71 -34 138 -45 158 -56 224 -56 327 l0 85
38 37 c21 20 45 37 55 37 10 0 14 5 11 15 -6 16 12 45 27 45 5 0 8 -17 8 -37
-3 -59 11 -123 26 -123 7 0 15 12 18 28 8 49 8 237 -1 249 -5 9 -46 -26 -130
-110z m-95 -335 c-8 -9 -23 -31 -31 -47 -12 -23 -16 -25 -16 -11 0 11 12 33
27 48 29 30 46 39 20 10z"/>
<path d="M6020 3405 c0 -19 5 -35 10 -35 6 0 10 16 10 35 0 19 -4 35 -10 35
-5 0 -10 -16 -10 -35z"/>
<path d="M2295 3401 l-60 -15 59 -13 c64 -15 81 -9 69 23 -8 20 -10 20 -68 5z"/>
<path d="M3980 3350 c0 -6 47 -10 123 -9 77 0 115 4 102 9 -29 12 -225 12
-225 0z"/>
<path d="M2883 3179 c-44 -28 -42 -39 7 -39 43 0 70 26 48 48 -16 16 -17 15
-55 -9z"/>
<path d="M4090 3172 c0 -19 24 -32 63 -32 35 0 15 19 -50 47 -8 3 -13 -3 -13
-15z"/>
<path d="M4272 3119 c-68 -4 -128 -11 -133 -16 -5 -5 1 -22 16 -43 23 -31 33
-36 97 -47 40 -6 76 -10 80 -7 4 3 -7 17 -24 32 -51 42 -61 52 -54 59 3 3 33
-19 65 -50 33 -32 63 -57 68 -57 13 0 243 -29 276 -35 48 -8 30 11 -70 76 -54
34 -93 64 -86 66 7 3 69 -32 139 -76 162 -104 189 -107 116 -14 -21 26 -46 54
-55 62 -10 7 -17 17 -17 22 0 5 49 9 109 9 63 0 112 4 116 10 3 6 3 10 -2 10
-90 5 -550 3 -641 -1z"/>
<path d="M3000 3110 c0 -5 23 -10 50 -10 28 0 50 5 50 10 0 6 -22 10 -50 10
-27 0 -50 -4 -50 -10z"/>
<path d="M3925 3110 c3 -5 17 -10 31 -10 14 0 22 4 19 10 -3 6 -17 10 -31 10
-14 0 -22 -4 -19 -10z"/>
<path d="M4076 3051 c-3 -5 5 -11 19 -13 20 -4 23 -3 14 8 -13 16 -25 18 -33
5z"/>
<path d="M4077 2978 c4 -7 8 -15 8 -18 5 -36 21 -50 80 -70 36 -12 70 -20 76
-18 6 2 -10 29 -36 61 -45 54 -50 57 -92 57 -33 0 -42 -3 -36 -12z"/>
<path d="M2680 2971 c-19 -4 -45 -13 -57 -19 -15 -9 -22 -9 -25 -1 -3 8 -52 5
-168 -11 -149 -21 -171 -27 -222 -57 -32 -19 -60 -38 -63 -43 -6 -9 99 -42
185 -59 76 -14 168 -7 221 16 51 23 149 95 198 147 l35 36 -35 -1 c-18 -1 -50
-4 -69 -8z"/>
<path d="M4259 2913 c50 -69 52 -71 138 -101 49 -17 107 -37 131 -43 23 -7 40
-14 38 -17 -4 -3 -174 48 -213 64 -7 3 -13 2 -13 -3 0 -10 165 -231 193 -259
12 -12 65 -44 117 -71 405 -214 491 -254 498 -233 3 7 13 4 27 -10 25 -23 247
-112 283 -112 25 -1 42 17 73 75 l20 37 -26 10 c-15 6 -32 10 -38 10 -22 0
-159 70 -227 115 -36 24 -90 68 -120 97 -68 65 -150 154 -150 162 0 3 -20 36
-43 73 -24 37 -56 91 -71 118 -29 55 -83 92 -146 100 -19 3 -88 12 -153 21
-66 8 -130 13 -144 9 -14 -3 -30 -1 -37 4 -7 6 -52 14 -101 17 l-88 7 52 -70z
m202 0 c13 -16 12 -17 -3 -4 -17 13 -22 21 -14 21 2 0 10 -8 17 -17z m184
-173 c3 -5 -1 -10 -9 -10 -8 0 -18 5 -21 10 -3 6 1 10 9 10 8 0 18 -4 21 -10z"/>
<path d="M4020 2950 c0 -5 5 -10 11 -10 5 0 7 5 4 10 -3 6 -8 10 -11 10 -2 0
-4 -4 -4 -10z"/>
<path d="M2078 2896 c-48 -6 -90 -14 -93 -18 -10 -10 100 -31 126 -25 29 8 90
57 69 55 -8 0 -54 -6 -102 -12z"/>
<path d="M4000 2895 c0 -7 92 -119 109 -132 17 -14 55 -18 49 -5 -23 51 -76
125 -95 133 -26 9 -63 12 -63 4z"/>
<path d="M2965 2859 c-90 -68 -115 -126 -35 -83 58 32 75 49 84 87 8 34 1 34
-49 -4z"/>
<path d="M5060 2868 c0 -21 138 -196 190 -239 29 -24 72 -61 97 -81 24 -21 53
-38 64 -38 10 0 18 -4 17 -8 -2 -5 19 -27 45 -50 49 -43 105 -72 137 -72 32 0
86 115 146 311 33 111 38 145 22 150 -7 3 -66 2 -131 -1 -65 -3 -126 -2 -135
2 -9 4 -60 7 -113 7 -53 1 -140 8 -195 16 -120 18 -144 19 -144 3z"/>
<path d="M4130 2858 c0 -16 44 -107 62 -129 14 -17 270 -150 276 -144 2 2 -37
57 -87 123 l-90 120 -69 21 c-81 24 -92 25 -92 9z"/>
<path d="M5962 2843 c-5 -15 -22 -68 -36 -118 -35 -118 -82 -249 -112 -306
-13 -26 -24 -50 -24 -54 0 -17 119 4 168 29 99 50 143 143 122 258 -11 66 -75
208 -96 215 -6 2 -16 -9 -22 -24z"/>
<path d="M1225 2840 c-7 -11 4 -60 17 -77 7 -9 24 -3 67 22 31 18 69 37 84 40
15 4 27 11 27 16 0 12 -187 12 -195 -1z"/>
<path d="M3048 2769 c-18 -28 -42 -98 -36 -104 7 -7 77 55 89 78 7 12 8 19 4
15 -4 -4 -15 2 -25 14 l-17 22 -15 -25z"/>
<path d="M2907 2724 c-55 -28 -73 -44 -98 -84 -36 -59 -45 -64 -25 -15 8 19
11 35 5 35 -5 0 -72 -31 -148 -70 -108 -54 -146 -78 -168 -107 -15 -21 -89
-117 -164 -213 -166 -214 -185 -246 -188 -324 -3 -83 -14 -106 -50 -106 -16 0
-36 -3 -45 -6 -21 -8 -109 -161 -101 -174 14 -23 157 -130 173 -130 20 1 227
176 251 214 10 14 20 24 23 21 9 -9 77 51 162 143 260 282 301 332 319 390 43
134 75 247 72 251 -3 2 -13 -2 -24 -10 -11 -8 -54 -39 -97 -69 -42 -30 -100
-76 -127 -102 -27 -26 -53 -45 -58 -42 -5 3 7 20 26 38 19 18 35 38 35 45 0 6
8 11 19 11 10 0 70 41 133 90 99 78 117 96 128 133 21 69 28 107 21 111 -3 2
-36 -11 -74 -30z m-157 -194 c-12 -23 -23 -40 -26 -38 -2 3 6 23 18 46 13 22
24 39 26 37 2 -2 -6 -22 -18 -45z"/>
<path d="M2792 2720 c-18 -17 -29 -30 -25 -30 15 0 73 40 73 50 0 17 -13 11
-48 -20z"/>
<path d="M3806 2724 c-12 -30 -6 -46 36 -100 48 -60 62 -67 54 -26 -3 15 -8
44 -12 65 -4 23 -16 45 -31 57 -31 24 -39 25 -47 4z"/>
<path d="M3157 2688 c-3 -18 -9 -48 -13 -65 -3 -18 -3 -33 2 -33 14 0 57 68
50 79 -3 5 0 11 6 14 9 3 7 10 -7 21 -28 22 -32 20 -38 -16z"/>
<path d="M1630 2703 c-142 -13 -294 -54 -329 -88 -12 -12 -12 -21 3 -62 32
-87 98 -213 111 -213 15 0 116 79 182 141 22 21 47 39 55 39 15 -1 -16 -29
-144 -132 -49 -39 -88 -73 -88 -76 0 -8 70 -133 92 -164 11 -16 27 -28 37 -28
17 0 218 74 295 108 22 11 64 26 91 35 64 21 546 273 562 294 19 24 9 30 -58
32 -35 1 -83 6 -107 12 -25 5 -57 12 -71 14 -68 12 -139 29 -166 41 -16 7 -67
18 -113 24 l-83 12 -47 -32 c-26 -18 -73 -56 -105 -83 -32 -27 -61 -46 -65
-43 -8 8 49 59 126 112 28 21 52 40 52 44 0 4 -30 10 -67 13 -68 7 -96 7 -163
0z"/>
<path d="M4180 2675 c13 -14 26 -23 28 -20 7 7 -29 45 -41 45 -6 0 0 -11 13
-25z"/>
<path d="M3035 2634 c-33 -26 -61 -52 -63 -59 -2 -6 -21 -67 -42 -135 -22 -68
-38 -126 -36 -127 2 -2 49 46 105 106 66 72 101 118 101 133 0 13 3 47 6 76 4
28 3 52 -2 52 -5 -1 -36 -21 -69 -46z"/>
<path d="M3691 2661 c-18 -11 -7 -59 23 -100 21 -28 24 -29 28 -13 3 11 3 42
0 71 -5 52 -18 63 -51 42z"/>
<path d="M4227 2663 c-4 -3 12 -40 35 -82 23 -42 44 -96 47 -121 3 -25 11 -45
18 -45 6 0 28 -19 48 -42 44 -52 34 -56 -15 -7 l-35 35 -7 -58 c-4 -32 -12
-93 -18 -136 l-11 -78 147 -160 c162 -177 211 -220 223 -200 6 9 10 5 15 -13
6 -23 198 -204 228 -215 15 -5 4 110 -27 285 -31 173 -31 174 0 174 14 0 25 3
25 8 0 21 -65 113 -212 303 l-163 210 -146 74 c-81 41 -149 72 -152 68z"/>
<path d="M6850 2655 c-8 -9 -8 -15 -2 -15 12 0 26 19 19 26 -2 2 -10 -2 -17
-11z"/>
<path d="M3915 2604 c7 -54 19 -92 34 -104 3 -3 41 -44 85 -92 43 -49 83 -88
88 -88 15 0 0 67 -28 125 -25 53 -95 140 -152 189 l-34 30 7 -60z"/>
<path d="M3575 2636 c-11 -6 -22 -12 -24 -13 -7 -4 31 -133 39 -133 16 0 28
144 13 153 -5 3 -17 0 -28 -7z"/>
<path d="M3172 2556 c-28 -30 -52 -56 -53 -58 0 -2 -9 -50 -19 -108 l-19 -105
5 90 4 90 -113 -118 -113 -119 -48 -145 c-46 -139 -51 -168 -24 -145 7 5 59
37 115 69 118 67 147 102 156 183 7 61 17 79 17 29 l0 -34 26 30 26 30 -23
-40 c-13 -22 -29 -50 -37 -63 -41 -64 49 -22 117 55 25 28 50 66 56 83 11 34
8 110 -5 110 -5 0 -28 -29 -51 -65 -23 -36 -44 -65 -46 -65 -6 0 25 56 64 118
32 49 36 62 34 117 -1 33 -5 73 -9 89 l-8 28 -52 -56z"/>
<path d="M3786 2594 c-3 -9 -6 -45 -6 -81 0 -63 2 -68 78 -194 42 -70 82 -127
88 -124 6 2 17 -15 24 -38 6 -22 18 -50 26 -62 12 -19 12 -21 -6 -21 -13 0
-20 7 -20 21 0 32 -179 310 -192 297 -3 -4 -10 -77 -13 -162 l-7 -155 37 -90
c20 -50 66 -161 101 -249 70 -172 100 -236 112 -236 4 0 6 72 4 161 -2 98 1
165 7 172 5 7 17 46 27 87 9 41 29 113 44 160 15 47 31 108 35 136 6 46 4 54
-17 76 -13 13 -50 53 -83 88 -96 104 -97 104 -91 23 5 -65 5 -66 -4 -18 -6 28
-13 65 -16 84 -3 22 -23 52 -56 87 -55 58 -63 62 -72 38z"/>
<path d="M3640 2538 c-5 -24 -14 -58 -19 -75 -8 -28 -1 -52 44 -164 30 -72 56
-133 58 -135 3 -3 7 41 11 98 12 199 13 189 -28 251 -21 31 -42 59 -47 62 -4
3 -13 -14 -19 -37z"/>
<path d="M3495 2518 c-18 -112 -25 -170 -25 -225 0 -47 -3 -61 -13 -57 -8 3
-22 -13 -35 -42 -13 -25 -46 -70 -74 -100 l-51 -54 7 -242 c7 -248 19 -375 36
-392 6 -6 15 3 25 25 18 37 15 20 -8 -52 -9 -27 -12 -51 -7 -60 10 -16 6 -20
59 59 24 35 50 66 59 69 11 5 35 -14 79 -62 35 -38 63 -73 63 -77 0 -8 -78
-116 -143 -198 -20 -24 -33 -48 -31 -52 7 -12 162 -10 185 2 13 7 19 21 19 43
0 18 8 73 17 122 9 50 17 110 17 135 1 25 4 50 8 55 14 23 29 190 37 415 l8
235 -50 120 c-85 206 -73 204 -119 25 -38 -151 -40 -181 -23 -260 5 -21 4 -20
-8 5 -11 25 -15 27 -23 13 -6 -11 -9 12 -9 73 0 70 2 86 12 73 14 -19 15 -16
38 106 9 47 21 101 26 121 5 20 9 46 9 57 0 24 -60 152 -72 152 -4 0 -10 -15
-13 -32z m-8 -360 c-3 -7 -5 -2 -5 12 0 14 2 19 5 13 2 -7 2 -19 0 -25z m-40
-420 c-3 -8 -6 -5 -6 6 -1 11 2 17 5 13 3 -3 4 -12 1 -19z"/>
<path d="M1118 2439 c-43 -66 -54 -129 -34 -202 17 -63 41 -98 86 -130 36 -25
48 -21 65 21 9 20 25 44 36 53 21 15 21 15 -9 75 -42 82 -77 164 -86 197 -9
38 -27 34 -58 -14z"/>
<path d="M2200 2365 c-124 -63 -252 -124 -286 -135 -34 -11 -70 -27 -80 -35
-10 -8 -28 -15 -39 -15 -23 -1 -190 -59 -220 -77 -20 -12 -20 -12 4 -59 14
-25 32 -49 40 -52 23 -9 231 15 376 43 107 20 133 28 145 47 8 12 69 94 136
183 120 159 160 215 153 215 -2 -1 -105 -52 -229 -115z"/>
<path d="M4600 2471 c0 -4 59 -86 130 -180 72 -95 146 -198 166 -229 20 -31
38 -59 41 -62 2 -3 30 -7 61 -10 l57 -5 7 -40 c4 -22 12 -76 18 -120 11 -80
26 -135 39 -135 4 0 25 18 46 40 21 22 44 40 50 40 5 0 15 8 20 19 6 10 36 49
68 87 77 91 160 215 150 225 -10 9 -183 69 -201 69 -7 0 -10 -4 -7 -10 11 -18
-1 -11 -32 19 -17 16 -54 36 -84 46 -30 10 -161 71 -291 136 -131 66 -238 115
-238 110z m691 -368 c13 -16 12 -17 -3 -4 -17 13 -22 21 -14 21 2 0 10 -8 17
-17z"/>
<path d="M1275 2163 c-23 -22 -37 -62 -30 -84 5 -15 16 -19 55 -19 27 0 51 4
55 9 5 9 -51 111 -60 111 -2 0 -11 -7 -20 -17z"/>
<path d="M2637 1983 c-86 -93 -189 -195 -227 -227 -39 -31 -70 -61 -70 -66 0
-4 -19 -19 -42 -33 -24 -14 -74 -54 -113 -90 l-70 -64 73 -49 c98 -65 165
-103 173 -98 4 2 12 24 18 50 31 124 157 314 284 429 43 38 77 76 77 83 0 8
14 58 31 113 17 55 29 104 27 111 -2 6 -75 -65 -161 -159z"/>
<path d="M4277 2083 c-21 -36 -16 -79 26 -210 25 -76 54 -185 66 -243 12 -58
30 -117 41 -132 12 -16 15 -28 9 -30 -8 -3 -8 -27 0 -83 18 -121 21 -135 36
-135 43 0 443 230 444 255 1 10 -161 145 -173 145 -3 0 1 -18 10 -40 9 -21 14
-45 12 -51 -2 -6 -16 20 -32 59 -24 62 -37 80 -109 145 -45 41 -134 131 -197
201 -63 69 -118 126 -122 126 -4 0 -9 -3 -11 -7z m193 -664 c15 -28 5 -23 -15
7 -9 15 -12 23 -6 20 6 -4 16 -16 21 -27z"/>
<path d="M1330 2040 c0 -11 48 -25 56 -17 4 3 3 10 -1 16 -8 14 -55 14 -55 1z"/>
<path d="M3122 1924 c-50 -31 -92 -62 -92 -70 0 -8 -6 -11 -15 -8 -19 8 -167
-96 -234 -166 -85 -87 -118 -132 -124 -170 -3 -19 -15 -84 -26 -145 -11 -60
-21 -117 -21 -125 0 -18 187 -87 211 -78 18 7 138 217 157 276 8 23 18 42 22
42 4 0 16 12 26 27 23 36 204 473 195 473 -3 0 -48 -25 -99 -56z"/>
<path d="M3741 1758 c-12 -225 -25 -340 -41 -391 -6 -17 -5 -38 1 -54 5 -14 6
-30 1 -37 -5 -6 -17 -49 -26 -96 -10 -47 -20 -93 -22 -102 -5 -15 2 -18 43
-18 94 0 351 41 420 67 l22 8 -39 83 c-22 46 -44 81 -49 78 -4 -3 -11 21 -14
53 -4 45 -15 76 -51 138 -26 44 -72 143 -104 219 -93 220 -117 274 -123 274
-3 0 -11 -100 -18 -222z"/>
<path d="M3177 1783 c-42 -98 -80 -189 -86 -203 -5 -14 -25 -51 -45 -84 -19
-32 -41 -75 -47 -95 -7 -20 -18 -39 -25 -44 -16 -9 -114 -180 -114 -199 0 -14
51 -35 105 -44 11 -2 43 -10 70 -17 28 -8 70 -17 94 -21 42 -6 45 -5 83 36 21
23 54 66 73 94 40 61 44 102 21 230 -8 44 -20 179 -27 302 -6 122 -15 222 -19
222 -4 0 -42 -80 -83 -177z"/>
<path d="M4225 1861 l-17 -90 23 -38 c21 -34 21 -36 3 -20 -12 9 -24 14 -27
10 -13 -12 -7 -240 8 -325 17 -100 52 -196 74 -207 10 -5 40 1 79 17 50 19 62
28 56 41 -10 24 -53 232 -54 259 0 13 -16 42 -35 65 -19 22 -35 45 -35 51 0 6
9 0 20 -14 10 -14 21 -22 24 -19 14 13 -70 326 -94 352 -4 5 -15 -32 -25 -82z
m45 -191 c6 -11 8 -20 6 -20 -3 0 -10 9 -16 20 -6 11 -8 20 -6 20 3 0 10 -9
16 -20z"/>
<path d="M1280 1876 c0 -20 114 -170 223 -294 166 -188 434 -408 637 -524 152
-86 276 -145 287 -135 2 2 -10 33 -27 68 -16 35 -35 90 -41 121 l-12 58 -81
44 c-44 25 -128 77 -186 116 -58 38 -113 70 -123 70 -9 0 -16 5 -15 11 5 18
-91 94 -103 82 -17 -17 -23 -91 -9 -108 10 -12 10 -15 -3 -15 -29 0 -36 57
-12 104 8 15 15 32 15 37 0 5 -38 46 -83 91 -46 46 -108 111 -139 146 -54 63
-55 63 -139 82 -46 10 -108 27 -136 38 -39 15 -53 17 -53 8z"/>
<path d="M1842 1808 l-52 -10 20 -28 c27 -38 80 -82 94 -77 11 4 76 106 76
120 0 9 -72 7 -138 -5z"/>
<path d="M2584 1448 c-68 -87 -95 -156 -70 -177 7 -6 27 -14 43 -17 30 -6 31
-5 41 42 44 209 43 225 -14 152z"/>
<path d="M4785 1244 c-98 -60 -313 -166 -358 -178 -32 -8 -31 -26 1 -41 12 -5
22 -13 22 -18 0 -4 24 -19 53 -32 60 -29 148 -33 201 -11 68 28 128 112 170
239 17 51 21 97 9 96 -5 0 -48 -25 -98 -55z"/>
<path d="M2490 1066 c0 -75 54 -169 125 -215 35 -23 50 -26 120 -25 71 0 88 4
155 36 86 42 115 63 106 76 -3 6 -36 15 -73 22 -38 6 -92 18 -121 27 l-54 15
-30 -29 c-22 -20 -27 -22 -18 -7 20 32 7 49 -49 68 -27 9 -52 16 -55 16 -3 0
-6 -20 -6 -44 0 -29 7 -52 21 -70 17 -21 18 -26 5 -26 -23 0 -46 53 -46 107 0
45 -2 50 -32 63 -18 7 -36 15 -40 18 -5 2 -8 -12 -8 -32z"/>
<path d="M4089 964 c-112 -29 -225 -48 -414 -69 -33 -4 -97 -7 -142 -6 -49 1
-84 -3 -88 -9 -5 -7 -11 -8 -19 -1 -6 5 -46 13 -88 17 -75 6 -76 6 -124 -27
-27 -19 -89 -55 -139 -81 -98 -51 -98 -46 5 -67 166 -35 545 -46 750 -22 144
17 339 56 435 87 114 37 235 86 230 94 -3 4 -30 15 -62 24 -32 9 -85 34 -118
56 -33 22 -69 39 -80 39 -11 -1 -77 -17 -146 -35z"/>
<path d="M4845 25 c-22 -14 -33 -25 -25 -25 8 1 29 12 45 25 38 31 31 31 -20
0z"/>
<path d="M4685 21 c-27 -13 -34 -20 -20 -20 11 0 31 8 45 19 31 24 26 25 -25
1z"/>
<path d="M4990 20 c-19 -11 -28 -19 -20 -19 8 0 26 8 40 19 31 25 25 25 -20 0z"/>
<path d="M4374 15 c-14 -11 -15 -14 -4 -14 8 0 24 6 34 14 15 11 16 15 5 15
-8 0 -24 -7 -35 -15z"/>
<path d="M5133 20 c-13 -5 -23 -12 -23 -15 0 -9 16 -5 36 10 22 16 19 18 -13
5z"/>
<path d="M4065 10 c-3 -5 1 -10 10 -10 9 0 13 5 10 10 -3 6 -8 10 -10 10 -2 0
-7 -4 -10 -10z"/>
<path d="M4520 10 c-13 -8 -12 -10 3 -10 9 0 17 5 17 10 0 12 -1 12 -20 0z"/>
<path d="M5420 10 c-13 -8 -13 -10 2 -10 9 0 20 5 23 10 8 13 -5 13 -25 0z"/>
</g>
</svg>
